<?xml version="1.0" encoding="UTF-8" standalone="no"?>
<!-- Created with Inkscape (http://www.inkscape.org/) -->

<svg
   xmlns:dc="http://purl.org/dc/elements/1.1/"
   xmlns:cc="http://creativecommons.org/ns#"
   xmlns:rdf="http://www.w3.org/1999/02/22-rdf-syntax-ns#"
   xmlns:svg="http://www.w3.org/2000/svg"
   xmlns="http://www.w3.org/2000/svg"
   xmlns:xlink="http://www.w3.org/1999/xlink"
   xmlns:sodipodi="http://sodipodi.sourceforge.net/DTD/sodipodi-0.dtd"
   xmlns:inkscape="http://www.inkscape.org/namespaces/inkscape"
   width="210mm"
   height="297mm"
   viewBox="0 0 210 297"
   version="1.1"
   id="svg8"
   inkscape:version="0.92.5 (0.92.5+68)"
   sodipodi:docname="concord.svg">
  <defs
     id="defs2">
    <linearGradient
       inkscape:collect="always"
       id="linearGradient1824">
      <stop
         style="stop-color:#00ffff;stop-opacity:1;"
         offset="0"
         id="stop1820" />
      <stop
         style="stop-color:#ff00cc;stop-opacity:1"
         offset="1"
         id="stop1822" />
    </linearGradient>
    <linearGradient
       inkscape:collect="always"
       xlink:href="#linearGradient1824"
       id="linearGradient1826"
       x1="67.759338"
       y1="148.44975"
       x2="147.40245"
       y2="151.86015"
       gradientUnits="userSpaceOnUse" />
  </defs>
  <sodipodi:namedview
     id="base"
     pagecolor="#ffffff"
     bordercolor="#666666"
     borderopacity="1.0"
     inkscape:pageopacity="0.0"
     inkscape:pageshadow="2"
     inkscape:zoom="0.62065193"
     inkscape:cx="468.43036"
     inkscape:cy="550.22439"
     inkscape:document-units="mm"
     inkscape:current-layer="layer1"
     showgrid="false"
     inkscape:window-width="1307"
     inkscape:window-height="744"
     inkscape:window-x="59"
     inkscape:window-y="24"
     inkscape:window-maximized="1" />
  <metadata
     id="metadata5">
    <rdf:RDF>
      <cc:Work
         rdf:about="">
        <dc:format>image/svg+xml</dc:format>
        <dc:type
           rdf:resource="http://purl.org/dc/dcmitype/StillImage" />
        <dc:title></dc:title>
      </cc:Work>
    </rdf:RDF>
  </metadata>
  <g
     inkscape:label="Camada 1"
     inkscape:groupmode="layer"
     id="layer1">
    <path
       style="opacity:1;fill:#ff8080;fill-opacity:1;fill-rule:nonzero;stroke:none;stroke-width:0.72874624;stroke-linecap:round;stroke-linejoin:miter;stroke-miterlimit:4;stroke-dasharray:none;stroke-dashoffset:0;stroke-opacity:1;paint-order:markers stroke fill"
       d="m 329.4916,56.570976 -21.97437,61.880454 -65.64147,3.14503 52.06142,40.02081 -17.29352,63.40027 54.14967,-37.14606 54.95375,36.03915 -18.59473,-62.97807 51.25682,-41.12772 -65.64199,-1.77664 z m -17.18707,76.552944 c 2.91335,0.0181 5.36499,0.94075 7.42642,2.79415 1.10652,0.99485 1.38712,1.61218 1.27279,2.80189 -0.0686,0.71463 -0.20988,1.02727 -0.68626,1.51877 -1.22012,1.25884 -2.56193,1.22011 -4.24884,-0.12299 -2.38529,-1.89921 -5.28831,-1.90163 -7.74526,-0.007 -1.55861,1.20246 -2.24196,1.33727 -3.51761,0.69401 v 0.001 c -1.06331,-0.53617 -1.69081,-1.7216 -1.50792,-2.84892 0.24971,-1.53928 3.19381,-3.77009 5.97431,-4.52686 0.78502,-0.21364 1.76424,-0.31175 3.03237,-0.30386 z m 35.67586,0 c 1.26813,-0.007 2.24785,0.0902 3.03289,0.30386 2.62295,0.71389 5.50594,2.79747 5.90093,4.26434 0.37135,1.37899 -0.33625,2.73045 -1.70325,3.25251 -1.08488,0.41434 -1.81034,0.24118 -3.12384,-0.7462 -1.4172,-1.06532 -2.56349,-1.49087 -4.01733,-1.49087 -1.4099,0 -2.67117,0.44779 -3.74861,1.33067 -1.35985,1.11432 -2.34294,1.37989 -3.38635,0.91416 -0.9588,-0.42798 -1.55784,-1.23689 -1.65365,-2.23398 -0.11417,-1.18779 0.1668,-1.80595 1.27279,-2.80034 2.06141,-1.8534 4.51307,-2.77603 7.42642,-2.79415 z M 305.22228,150.481 h 24.92044 24.92044 l 0.58963,0.40153 c 1.17809,0.80179 1.34071,1.20486 1.2976,3.22202 -0.1117,5.22567 -1.85965,10.40362 -4.99866,14.80789 -1.38293,1.94034 -4.23131,4.75849 -6.29523,6.22856 -2.98718,2.12764 -7.07973,3.86951 -10.60865,4.51497 -2.21253,0.40468 -6.68985,0.48736 -8.82944,0.16329 -12.83084,-1.94334 -22.61034,-12.93264 -22.88336,-25.71471 -0.0431,-2.01716 0.11901,-2.42023 1.29708,-3.22202 z m 3.96048,5.61878 0.0527,0.80305 c 0.0911,1.38642 0.8633,3.80393 1.83761,5.75314 3.03388,6.0696 9.1147,10.59265 15.5019,11.53056 0.73581,0.10807 1.53858,0.23151 1.78387,0.2744 0.82894,0.14492 4.36065,-0.0618 5.8167,-0.34003 6.42301,-1.22791 12.07235,-5.53531 15.03629,-11.46493 0.9743,-1.94921 1.74657,-4.36672 1.83761,-5.75314 l 0.0527,-0.80305 h -20.95944 z"
       id="path817"
       inkscape:connector-curvature="0" />
    <path
       inkscape:connector-curvature="0"
       id="path840-36"
       d="m 477.9434,199.00741 c -12.83084,-1.94334 -22.61023,-12.93295 -22.88325,-25.71502 -0.0431,-2.01716 0.11929,-2.42042 1.29736,-3.22221 l 0.58971,-0.40137 h 24.92054 24.92053 l 0.58971,0.40137 c 1.17809,0.80179 1.34046,1.20505 1.29735,3.22221 -0.1117,5.22567 -1.85949,10.40383 -4.99851,14.8081 -1.38293,1.94034 -4.2313,4.75859 -6.29522,6.22865 -2.98718,2.12764 -7.07948,3.86924 -10.6084,4.5147 -2.21253,0.40468 -6.69023,0.48764 -8.82982,0.16357 z m 7.95756,-5.69844 c 6.42301,-1.22791 12.07234,-5.53556 15.03628,-11.46518 0.9743,-1.94921 1.74647,-4.36686 1.83752,-5.75328 l 0.0527,-0.8027 h -20.9597 -20.95972 l 0.0527,0.8027 c 0.0911,1.38642 0.86322,3.80407 1.83753,5.75328 3.03388,6.0696 9.1147,10.59256 15.50189,11.53047 0.73581,0.10807 1.53852,0.23152 1.78381,0.27441 0.82894,0.14492 4.36093,-0.0615 5.81698,-0.3397 z m -29.37005,-33.31731 c -1.0633,-0.53617 -1.69076,-1.72177 -1.50787,-2.84909 0.24971,-1.53928 3.19369,-3.76995 5.97419,-4.52672 0.78503,-0.21364 1.76434,-0.31179 3.03247,-0.3039 2.91335,0.0181 5.36509,0.94047 7.42652,2.79387 1.10651,0.99485 1.38697,1.61232 1.27264,2.80203 -0.0686,0.71463 -0.20998,1.02736 -0.68635,1.51886 -1.22013,1.25884 -2.56168,1.21994 -4.24859,-0.12316 -2.3853,-1.89921 -5.28831,-1.9014 -7.74527,-0.007 -1.5586,1.20246 -2.24208,1.33729 -3.51774,0.69403 z m 36.12889,0.14855 c -0.95881,-0.42797 -1.55752,-1.23702 -1.65333,-2.23411 -0.11417,-1.18779 0.16682,-1.80589 1.27281,-2.80028 2.06142,-1.8534 4.51319,-2.77575 7.42654,-2.79387 1.26813,-0.007 2.24744,0.0902 3.03248,0.3039 2.62295,0.71389 5.50627,2.79736 5.90126,4.26423 0.37135,1.37899 -0.33654,2.73058 -1.70354,3.25264 -1.08488,0.41434 -1.81014,0.24104 -3.12364,-0.74634 -1.4172,-1.06532 -2.56354,-1.49069 -4.01738,-1.49069 -1.4099,0 -2.67139,0.44775 -3.74883,1.33063 -1.35985,1.11432 -2.34296,1.37962 -3.38637,0.91389 z"
       style="fill:none;stroke:#000000;stroke-width:0.17838067"
       sodipodi:nodetypes="sccccccccccsccccccccccccccccsccccccccccccccscc" />
    <path
       style="opacity:1;fill:url(#linearGradient1826);fill-opacity:1;fill-rule:nonzero;stroke:none;stroke-width:1;stroke-linecap:round;stroke-linejoin:miter;stroke-miterlimit:4;stroke-dasharray:none;stroke-dashoffset:0;stroke-opacity:1;paint-order:markers stroke fill"
       d="M 103.52563,89.644046 A 59.082034,59.082034 0 0 0 44.443965,148.72623 59.082034,59.082034 0 0 0 103.52563,207.80789 59.082034,59.082034 0 0 0 162.60781,148.72623 59.082034,59.082034 0 0 0 103.52563,89.644046 Z M 77.925641,123.535 c 4.181917,0.026 7.701291,1.35018 10.660329,4.01061 1.58832,1.42804 1.99088,2.31423 1.82677,4.02198 -0.0985,1.0258 -0.30168,1.47471 -0.98547,2.18023 -1.751418,1.80698 -3.676894,1.75119 -6.09834,-0.17674 -3.423936,-2.72619 -7.591385,-2.72956 -11.118185,-0.0103 -2.237264,1.72605 -3.21818,1.91967 -5.049303,0.99632 v 0.002 c -1.526294,-0.76964 -2.426735,-2.47148 -2.16421,-4.08967 0.358442,-2.20953 4.58397,-5.41151 8.575188,-6.4978 1.126858,-0.30666 2.532909,-0.44747 4.353221,-0.43615 z m 51.210309,0 c 1.82033,-0.01 3.22635,0.1294 4.35322,0.43615 3.76507,1.02474 7.90382,4.01549 8.4708,6.12108 0.53304,1.97945 -0.48309,3.91958 -2.44533,4.66896 -1.55727,0.59475 -2.59852,0.34606 -4.48396,-1.07125 -2.0343,-1.5292 -3.67968,-2.13992 -5.76657,-2.13992 -2.0238,0 -3.83448,0.64265 -5.38107,1.90996 -1.95198,1.59953 -3.36345,1.98058 -4.8612,1.31206 -1.37631,-0.61432 -2.23545,-1.77579 -2.37299,-3.20704 -0.16388,-1.705 0.2392,-2.59201 1.82677,-4.01939 2.95903,-2.66043 6.47843,-3.9846 10.66033,-4.01061 z m -61.376611,24.91476 h 35.771461 35.77197 l 0.84646,0.57619 c 1.69107,1.15091 1.92378,1.72954 1.8619,4.62504 -0.16032,7.50109 -2.66889,14.93404 -7.17475,21.25607 -1.9851,2.78523 -6.07405,6.83088 -9.03666,8.94106 -4.28789,3.05408 -10.16197,5.55371 -15.22749,6.48022 -3.17593,0.58089 -9.60344,0.70032 -12.67468,0.23513 -18.417799,-2.78953 -32.455188,-18.56469 -32.847092,-36.91248 -0.06187,-2.8955 0.170863,-3.47413 1.861902,-4.62504 z m 5.685441,8.06566 0.07545,1.15238 c 0.130767,1.99011 1.239009,5.46047 2.637565,8.25841 4.35493,8.7125 13.083495,15.20462 22.251875,16.55093 1.0562,0.15513 2.20847,0.33221 2.56056,0.39378 1.18989,0.20802 6.25982,-0.088 8.34988,-0.48731 9.21979,-1.76258 17.32917,-7.94583 21.58369,-16.4574 1.39854,-2.79794 2.50687,-6.2683 2.63757,-8.25841 l 0.0754,-1.15238 H 103.5308 Z"
       id="path858"
       inkscape:connector-curvature="0" />
  </g>
</svg>
