<?xml version="1.0" encoding="UTF-8"?>
<!DOCTYPE svg PUBLIC "-//W3C//DTD SVG 1.1//EN" "http://www.w3.org/Graphics/SVG/1.1/DTD/svg11.dtd">
<!-- Creator: CorelDRAW 2020 (64 Bit) -->
<svg xmlns="http://www.w3.org/2000/svg" xml:space="preserve" width="123.284mm" height="124.434mm" version="1.1" style="shape-rendering:geometricPrecision; text-rendering:geometricPrecision; image-rendering:optimizeQuality; fill-rule:evenodd; clip-rule:evenodd"
viewBox="0 0 12328.44 12443.43"
 xmlns:xlink="http://www.w3.org/1999/xlink"
 xmlns:xodm="http://www.corel.com/coreldraw/odm/2003">
 <defs>
  <style type="text/css">
   <![CDATA[
    .fil1 {fill:black;fill-rule:nonzero}
    .fil0 {fill:url(#id0);fill-rule:nonzero}
    .fil2 {fill:url(#id1);fill-rule:nonzero}
   ]]>
  </style>
  <linearGradient id="id0" gradientUnits="userSpaceOnUse" x1="2355.75" y1="4998.19" x2="9972.69" y2="4998.19">
   <stop offset="0" style="stop-opacity:1; stop-color:#90E1FC"/>
   <stop offset="0.490196" style="stop-opacity:1; stop-color:#FB81F8"/>
   <stop offset="1" style="stop-opacity:1; stop-color:#FFFE7F"/>
  </linearGradient>
  <linearGradient id="id1" gradientUnits="userSpaceOnUse" xlink:href="#id0" x1="-0" y1="6221.73" x2="12328.44" y2="6221.73">
  </linearGradient>
 </defs>
 <g id="Camada_x0020_1">
  <metadata id="CorelCorpID_0Corel-Layer"/>
  <g id="_831166848">
   <path class="fil0" d="M5962.63 1189.73l404.34 0 3.02 0.23c121.98,6.67 243.59,19.09 364.46,37.4 120.01,18.18 240.49,42.27 361.1,72.42 62.88,15.71 121.63,32.23 180.25,50.23 57.2,17.57 113.48,36.4 173.01,57.22 152.18,53.2 316.8,125.95 474.03,207.68 158.89,82.58 311.48,174.87 437.45,266 378.01,273.47 702.18,601.52 959.09,976.53 250.11,365.08 436.3,774.56 546.2,1221.38 30.78,125.21 55.02,251.66 72.8,378.77 17.85,127.73 29.18,256.59 34.07,385.99l0.23 2.1 0 286.49 -0.23 2.09c-7.31,195.64 -29.29,390.32 -65.57,582.11 -36.31,191.91 -87,381.37 -151.7,566.41 -20.22,57.86 -41.1,114.34 -62.78,167.67 -22.28,54.78 -46.33,108.74 -72.69,161.05 -221.95,440.3 -464.2,791.53 -761.76,1088.38 -297.31,296.61 -649.1,537.97 -1090.34,758.74 -221.5,110.84 -466.68,195.16 -724.12,253 -264.64,59.45 -542.77,91.05 -821.91,94.8l-0.7 0.24 -114.21 0 -0.69 -0.24c-280.73,-3.98 -560.54,-36.14 -826.72,-96.45 -259.26,-58.74 -505.93,-144.18 -728.35,-256.29 -440.3,-221.94 -791.52,-464.2 -1088.38,-761.75 -296.61,-297.32 -537.97,-649.11 -758.74,-1090.35 -132.58,-264.96 -219.65,-541.72 -273.5,-827.51 -53.75,-285.28 -74.53,-578.9 -74.53,-878.4 0,-355.29 67.27,-730.33 185.35,-1087.93 120.94,-366.28 295.47,-714.85 505.83,-1005.62 348.42,-481.61 788.11,-868.19 1283.66,-1142.57 498.62,-276.08 1053.64,-438.44 1629.01,-469.59l3.02 -0.23zm404.34 118.88l0 0.07 -404.34 0 0 -0.07c-556.07,30.57 -1092.46,187.69 -1574.42,454.55 -480.33,265.95 -906.81,641.06 -1245.1,1108.65 -203.11,280.76 -371.87,618.07 -489.1,973.09 -114.23,345.94 -179.31,708.21 -179.31,1050.77 0,293.61 20.14,580.19 72.21,856.56 51.98,275.86 135.68,542.29 262.81,796.38 214.9,429.5 449.34,771.43 736.91,1059.68 287.33,288.01 628.71,523.21 1057.71,739.46 213.78,107.76 451.17,189.94 700.94,246.53 258.29,58.53 529.52,89.75 801.39,93.65l0 -0.22 114.21 0 0 0.22c270.37,-3.68 539.93,-34.35 796.59,-92 248.66,-55.86 484.75,-136.95 697.17,-243.24 429.49,-214.9 771.42,-449.33 1059.68,-736.91 288.01,-287.33 523.2,-628.71 739.45,-1057.71 24.19,-47.99 46.93,-99.17 68.51,-152.22 22.17,-54.53 42.26,-108.67 60.93,-162.1 62.67,-179.23 111.8,-362.93 147.05,-549.22 35.16,-185.87 56.49,-373.94 63.63,-562.36l-0.15 0 0 -286.49 0.15 0c-4.74,-123.81 -15.73,-247.92 -33.05,-371.83 -17.21,-123 -40.68,-245.42 -70.49,-366.69 -106.41,-432.64 -286.74,-829.19 -529,-1182.81 -248.94,-363.38 -563.53,-681.61 -930.75,-947.26 -120.87,-87.44 -268.3,-176.52 -422.58,-256.71 -153.58,-79.83 -312.79,-150.34 -458.24,-201.18 -57.94,-20.27 -112.82,-38.63 -168.83,-55.83 -54.61,-16.76 -111.21,-32.62 -174.2,-48.36 -116.35,-29.09 -233.12,-52.41 -349.96,-70.11 -117.78,-17.84 -234.49,-29.89 -349.82,-36.29zm-1008.95 2884.12c0,-71.38 -20.63,-122 -58.52,-164.36 -41.97,-46.93 -107.4,-88.06 -189.99,-135.27 -20.82,-11.9 -54.77,-26.97 -90.75,-40.94 -36.54,-14.19 -75.48,-27.31 -105.36,-34.94 -25.01,-6.38 -81.09,-15.66 -134.49,-22.32 -43.25,-5.39 -83.07,-8.98 -99.57,-7.64 -93.22,7.58 -169.14,18.75 -237.24,37.76 -66.76,18.64 -127.64,45.36 -192.2,84.37 -162.46,98.18 -226.9,187.79 -234.23,259.44 -2.66,25.97 2.8,49.67 13.85,70.25 11.78,21.91 29.94,40.8 51.66,55.69 52.39,35.89 122.22,48.08 173.56,24.37 3.89,-1.79 17.67,-12.49 35.76,-26.54 108.66,-84.37 340.15,-264.12 642.03,-109.28 33.13,16.97 63.75,40.53 95.89,65.26 71.09,54.69 151.85,116.82 243.89,67.55 18.61,-9.96 43.3,-33.02 62.44,-61.68 13.6,-20.37 23.27,-42.38 23.27,-61.72zm29.76 -243.35c57.75,64.57 89.19,139.72 89.19,243.35 0,44.78 -18.17,89.43 -43.73,127.7 -29.76,44.58 -71.68,82.32 -105.18,100.24 -159.46,85.37 -272.56,-1.64 -372.12,-78.24 -27.95,-21.51 -54.59,-42 -77.31,-53.64 -234.5,-120.28 -425.52,28.04 -515.18,97.66 -23.88,18.54 -42.06,32.66 -58.99,40.48 -89.44,41.3 -205.91,23.6 -290.18,-34.13 -36.89,-25.28 -68.22,-58.29 -89.3,-97.51 -21.8,-40.58 -32.58,-87.31 -27.33,-138.54 10.79,-105.33 91.3,-228.47 290.93,-349.11 73.46,-44.41 143.76,-75.09 221.93,-96.91 76.82,-21.45 159.63,-33.82 259.54,-41.94 25.12,-2.04 73.46,1.89 123.27,8.1 57.88,7.21 120.15,17.65 149.35,25.11 32.76,8.36 76.75,23.25 118.83,39.58 42.13,16.36 82.12,34.15 107.01,48.37 91.76,52.45 165.61,99.44 219.27,159.43zm1582.94 184.8c0,39.35 1.93,75.11 13.12,104.1 10.3,26.69 30.11,51.4 66.83,74.27 82.53,51.38 155.03,1.75 239.26,-55.93 142.65,-97.69 310.7,-212.75 605.26,-63.61 47.47,24.03 78.85,50.68 108.63,75.98 21.12,17.93 41.29,35.07 63.39,46.85 53.03,28.28 124.59,17.15 178.07,-19.03 21.45,-14.51 39.44,-32.82 51.46,-53.93 11.46,-20.13 17.75,-43.26 16.58,-68.49 -3.35,-71.94 -64.26,-162.36 -225.38,-259.44 -77.32,-46.6 -138.46,-72.72 -201.86,-89.64l0.01 -0.06c-64.53,-17.19 -134.51,-25.67 -226.69,-36.47 -13.42,-1.56 -28.1,-2.33 -43.85,-2.33 -123.55,0 -283.32,49.24 -415.31,120.15 -124.28,66.76 -220.84,148.93 -229.12,219.6 -0.26,2.28 -0.4,4.95 -0.4,7.98zm-97.46 146.84c-18.34,-47.51 -21.49,-95.67 -21.49,-146.84 0,-6.74 0.45,-13.9 1.34,-21.46 13.24,-113.03 135.39,-227.12 290.92,-310.66 147.81,-79.41 329.02,-134.55 471.52,-134.55 19.38,0 38.54,1.06 57.32,3.26 96.91,11.36 170.59,20.3 243.64,39.78l0.24 0c74.24,19.82 144.77,49.77 232.51,102.64 200.89,121.05 277.51,247.95 282.53,356.09 2.27,48.77 -9.82,93.37 -31.9,132.15 -21.54,37.8 -52.3,69.61 -88.17,93.88 -86.89,58.78 -207.17,74.71 -300.27,25.07 -34.18,-18.22 -58.66,-39.02 -84.29,-60.79 -24.71,-20.99 -50.75,-43.11 -85.4,-60.65 -232.01,-117.47 -368.81,-23.81 -484.93,55.72 -118.55,81.18 -220.6,151.05 -368.88,58.71 -61.2,-38.11 -95.45,-82.54 -114.69,-132.35zm-2436.94 1272.77l3515.57 0 0 59.47c0,129.32 -42.2,284.46 -103.44,433.85 -72.03,175.75 -171.49,345.48 -258.92,454.81 -62.35,77.95 -128.88,149.83 -200.41,215.46 -72.1,66.15 -149.97,126.79 -234.5,181.81 -44.95,29.25 -88.92,56.16 -133,80.07 -44.84,24.31 -92.4,46.99 -144.86,67.92 -342.43,136.64 -689.36,176.78 -1018.55,122.75 -328.21,-53.87 -638.29,-201.21 -908.22,-439.69 -60.17,-53.17 -104.24,-104.5 -151.58,-159.68 -11.55,-13.46 -23.39,-27.26 -43.98,-50.62 -55.15,-62.57 -98.74,-135.38 -141.7,-207.14 -8.39,-14.03 -16.85,-28.15 -28.47,-47.15 -44.23,-72.32 -103.8,-204.9 -147.46,-341.55 -34.86,-109.13 -59.95,-221.8 -59.95,-310.84l0 -59.47 59.47 0zm3393.44 118.94l-3330.2 0c7.66,65.68 26.38,141.2 50.15,215.6 40.59,127.08 95.42,249.43 135.84,315.53 7.6,12.42 18.22,30.16 28.93,48.07 39.79,66.46 80.16,133.9 129.16,189.49 10.33,11.72 27.79,32.07 44.9,52.01 44.86,52.28 86.61,100.93 139.97,148.07 252.68,223.23 542.43,361.07 848.75,411.35 308.22,50.59 633.79,12.72 955.83,-115.79 45.14,-18.01 88.69,-38.94 131.84,-62.34 43.9,-23.82 84.86,-48.77 125.11,-74.96 78.42,-51.05 151.07,-107.67 218.7,-169.72 68.21,-62.59 130.7,-129.94 188.33,-201.99 80.93,-101.21 173.71,-260.04 241.73,-426.01 46.33,-113.03 80.69,-228.45 90.96,-329.31zm-1680.04 1858.07c259.21,0 494.73,-41.12 714.63,-118.82 220.65,-77.97 426.22,-192.81 624.66,-339.93 105.66,-78.35 162.95,-140.92 226.29,-210.1 25.88,-28.27 52.7,-57.56 79.85,-85.36 37.81,-38.69 84.65,-105.01 117.97,-152.2l3.92 -5.56c110.79,-156.68 212.05,-348.83 282.85,-550.83 62.99,-179.71 101.86,-366.77 101.77,-542.78 -0.02,-40.77 3.04,-70.76 5.68,-96.66l0 -0.23c4.67,-45.69 7.65,-74.91 -22,-129.16 -13.63,-24.93 -32.71,-45.78 -57.37,-59.81 -22.95,-13.06 -51.7,-20.61 -86.59,-20.61l-3954.02 0c-143.73,0 -164.67,114.51 -164.67,196.17 0,25.98 1.74,48.72 3.05,65.83 0.78,10.25 1.42,18.56 1.53,29.1 1.5,145.72 29.41,309.4 74.46,467.64 47.23,165.9 113.05,324.44 186.79,448.83 47.74,80.53 127.14,200.17 208.65,306.71 61.03,79.76 122.71,151.56 171.69,192.12 13.61,11.28 21.68,17.27 28.92,22.65 16.84,12.5 30.43,22.6 55.39,47.6 95.79,95.89 234.72,190.54 385.03,270.97 161.98,86.68 336.29,156.34 483.82,193.09 76.76,19.13 161.24,37.01 250.83,50.16 88.32,12.96 181.51,21.18 276.87,21.18zm754.12 -6.85c-232.81,82.27 -481.39,125.8 -754.12,125.8 -100.84,0 -199.88,-8.77 -294.07,-22.59 -92.94,-13.64 -181.31,-32.37 -261.97,-52.47 -156.46,-38.97 -340.64,-112.49 -511.24,-203.78 -160.11,-85.68 -309.11,-187.51 -413.37,-291.88 -18.77,-18.79 -29.11,-26.47 -41.91,-35.99 -10.09,-7.49 -21.32,-15.83 -34.04,-26.36 -56.22,-46.57 -124.19,-125.28 -190.26,-211.63 -84.59,-110.55 -166.99,-234.74 -216.55,-318.34 -78.93,-133.12 -149,-301.49 -198.87,-476.69 -47.55,-167.01 -77.03,-341.56 -78.64,-499.24 -0.02,-1.37 -0.7,-10.27 -1.53,-21.21 -1.52,-19.75 -3.53,-46 -3.53,-74.65 0,-131.17 36.08,-315.12 283.62,-315.12l3954.02 0c56.22,0 104.58,13.33 145.13,36.42 44.79,25.49 78.96,62.47 102.91,106.26 47.3,86.56 42.88,130 35.94,197.93 -2.44,23.73 -5.24,51.23 -5.23,84.81 0.1,190.28 -41.25,390.61 -108.27,581.81 -74.67,213.03 -181.24,415.36 -297.72,580.1l-3.92 5.56c-35.5,50.26 -85.39,120.91 -130.04,166.6 -30.94,31.69 -54.66,57.59 -77.53,82.57 -67.73,73.98 -128.99,140.88 -243.02,225.43 -207.96,154.18 -423.75,274.67 -655.79,356.66z"/>
   <path class="fil1" d="M50.14 8125.02l-0.02 -6092.51c0,-423.24 78.87,-789.38 242.24,-1091.47 159.38,-294.7 399.06,-528.29 724.23,-694.27 103.82,-52.98 238.38,-107.03 383.42,-145.03 119.24,-31.24 245.54,-51.61 367.63,-51.61l8793.14 0c117.23,0 241.15,19.68 358.49,49.64 231.05,59.01 468.75,165.35 656.88,313.37 79.27,62.37 150.65,132.21 236.26,220.9 156.92,162.53 273.47,355.43 350.75,586.29 77.15,230.48 115.16,498.69 115.16,812.18l-0.09 6108.4c-3.01,587.7 -172.98,1079.24 -499.46,1424.05 -326.54,344.87 -809.34,542.65 -1437.87,542.66l-3040.18 -0.46c-295.15,-1.72 -319.57,11.86 -489.64,106.58 -58.31,32.48 -133.53,74.37 -241.41,128.01 -354.32,176.18 -734.57,381.45 -1115.66,587.17 -388.02,209.47 -776.95,419.42 -1140.83,599.91 -83.31,41.31 -277.97,145.83 -505.11,267.74 -453.08,243.23 -1035.3,555.78 -1125.69,576.84l-15.82 3.68 329.47 -1602.76c91.7,-458.52 115.28,-610.31 -109.87,-655.35 -115.55,-23.1 -295.17,-20.06 -561.18,-15.55 -111.38,1.89 -237.92,4.04 -381.4,4.63l-10.97 0.02c-602.63,0.04 -1072.07,-204.25 -1391.56,-552.97 -319.31,-348.49 -488.5,-841.03 -490.87,-1417.81l-0.04 -12.28zm20.84 -6092.51l-0.02 6104.7c2.34,571.57 169.65,1059.27 485.4,1403.88 315.54,344.41 779.78,546.17 1376.25,546.17l10.89 0.02c143.16,-0.58 269.73,-2.73 381.15,-4.63 267.5,-4.54 448.14,-7.59 565.58,15.89 245.02,49.01 221.02,205.97 126.23,679.86l-322.72 1569.75c127.42,-45.41 674.27,-338.98 1104.47,-569.92 227.15,-121.93 421.85,-226.45 505.77,-268.07 363.28,-180.19 752.19,-390.13 1140.17,-599.57 381.1,-205.73 761.38,-411.02 1116.32,-587.51 107.91,-53.65 182.61,-95.25 240.52,-127.51 174.21,-97.02 199.22,-110.94 499.77,-109.18l3040.14 0.45c622.4,0 1100.12,-195.44 1422.79,-536.23 322.75,-340.88 490.78,-827.5 493.77,-1409.75l0 -6108.35c0,-311.38 -37.64,-577.41 -114.02,-805.59 -76.26,-227.82 -191.24,-418.14 -346.03,-578.46 -84.91,-87.96 -155.67,-157.22 -234.13,-218.95 -78.38,-61.67 -164.56,-115.95 -280.38,-174.02 -97.93,-49.08 -228.58,-99.7 -368.77,-135.51 -115.79,-29.57 -237.99,-48.99 -353.35,-48.99l-8793.14 0c-120.35,0 -244.86,20.09 -362.41,50.88 -143.27,37.53 -276.37,91.02 -379.19,143.49 -321.26,164 -558.01,394.65 -715.35,685.55 -161.67,298.95 -239.71,661.78 -239.71,1081.6z"/>
   <path class="fil2" d="M0.23 8125.02l-0.03 -6092.5 -0.2 0c0,-215.98 20.43,-418.06 61.99,-605.36 41.19,-185.63 103.07,-355.86 186.33,-509.81 82.69,-152.88 186.38,-289.87 311.75,-410.04 123.68,-118.57 268.08,-220.59 433.81,-305.17 55.65,-28.4 120.41,-57.28 191.35,-84.11 63.15,-23.88 131.28,-46.04 202.26,-64.63 64.07,-16.79 130.01,-30.53 196.11,-39.81 61.89,-8.69 123.71,-13.58 184.04,-13.58l8793.15 0c57.93,0 117.96,4.73 178.46,13.11 65.32,9.04 130.04,22.2 192.35,38.1 122.3,31.24 246.45,75.43 364.5,131.74 111.02,52.96 216.88,116.79 310.99,190.84 40.53,31.89 79.31,65.94 119.07,103.51 38.98,36.85 78.82,77.08 122.27,122.08 80.99,83.91 151.66,175.77 212.09,276.53 60.25,100.46 110.21,209.67 150,328.56 39.59,118.26 69.1,245.94 88.67,383.96 19.54,137.83 29.25,285.55 29.25,444.08l-0.2 0 -0.09 6108.58c-1.53,300.41 -45.97,576.43 -131.91,821.49 -86.04,245.28 -213.57,459.72 -381.25,636.82 -171.16,180.77 -383.84,322.29 -636.54,417.67 -243.02,91.71 -522.66,140.66 -837.54,140.66l0 -0.2 -3040.38 -0.46c-143.16,-0.83 -220.17,1.92 -280.18,15.94 -57.74,13.5 -104.04,39.28 -185,84.38l-0.76 0.48c-58.99,32.8 -135.02,75.12 -242.8,128.7 -352.85,175.44 -733.06,380.69 -1114.09,586.39 -193.64,104.52 -387.5,209.19 -579.86,311.02 -191.24,101.24 -379.75,199 -562.54,289.67 -81.47,40.41 -274.51,144.02 -500.06,265.09l-0.2 0 -3.32 1.78 0.04 0.08c-228.97,122.92 -490.57,263.35 -699.45,372.13 -216.66,112.82 -388.63,197.78 -438.57,209.42 -13.89,0 -74.54,17.27 -91.8,21.28l345.11 -1678.87 -0.14 -0.03c44.95,-224.87 73.26,-374.25 63.28,-467.65 -7.97,-74.65 -46.81,-111.38 -133.82,-128.79 -111.01,-22.18 -288.03,-19.19 -550.04,-14.76l-0.57 0.01c-55.34,0.93 -114.46,1.95 -178.86,2.8 -63.38,0.84 -130.96,1.54 -203.13,1.83l-11.16 0.02c-301.99,0.01 -571.66,-50.34 -806.91,-143.82 -245.61,-97.6 -453.54,-242.14 -621.44,-425.4 -164.05,-179.04 -289.52,-394.77 -374.25,-639.51 -84.57,-244.25 -128.54,-517.42 -129.75,-811.78l-0.03 -12.47zm120.67 -6092.5l-0.02 6104.5c1.14,280.76 42.77,540.61 122.84,772.18 79.35,229.5 196.51,431.31 349.44,598.23 155.7,169.94 348.97,304.08 577.67,394.85 220.86,87.64 475.4,134.87 761.78,134.87l0 0.2 10.76 0.02c142.07,-0.58 268.51,-2.73 379.83,-4.62l0.66 -0.01c134.17,-2.27 246.59,-4.18 340.64,-2.57 96.8,1.66 174.26,6.99 235.51,19.23 147.73,29.55 214.56,93.32 230.48,223.67 13.71,112.19 -16.55,273.41 -64.89,515.13l-0.2 0.19 -303.41 1475.81c82.92,-38.98 206.07,-101.8 347.35,-175.67 197.96,-103.52 446.39,-236.89 665.18,-354.35l0.2 0 1.61 -0.87 -0.04 -0.08c226.48,-121.55 420.45,-225.69 505.57,-267.89 361.68,-179.4 750.31,-389.19 1138.02,-598.48l0.58 -0.32c190.15,-102.64 380.12,-205.2 568.37,-304.91 187.06,-99.09 371.16,-194.69 549.52,-283.37 52.84,-26.27 98.11,-49.9 137.43,-71 42.65,-22.86 73.77,-40.21 100.93,-55.34l11.62 -6.46c173.79,-96.71 205.72,-110.78 512.62,-108.99l3039.96 0.46 0 -0.2c299.95,0 565.03,-46.06 794.05,-132.38 235.62,-88.8 433.58,-220.33 592.52,-388.19 155.94,-164.71 274.72,-364.81 355.08,-594.23 81.41,-232.42 123.49,-494.85 124.98,-781.07l-0.2 0 0 -6108.34c0,-153.92 -9.22,-296 -27.77,-427.16 -18.53,-130.97 -46.33,-251.54 -83.5,-362.59 -36.97,-110.43 -83.29,-211.73 -139.07,-304.76 -55.6,-92.72 -120.78,-177.41 -195.6,-254.91 -41.81,-43.3 -80.15,-82.03 -117.72,-117.54 -36.81,-34.79 -73.02,-66.56 -111.34,-96.7 -37.86,-29.78 -77.54,-57.76 -121.63,-85.22 -45.31,-28.23 -94.5,-55.63 -150.12,-83.52 -48.91,-24.51 -107.23,-49.74 -171.89,-73.51 -58.27,-21.4 -121.37,-41.34 -186.9,-58.08 -59.13,-15.1 -119.41,-27.43 -178.8,-35.66 -54.22,-7.51 -108.73,-11.76 -162.21,-11.76l-8793.15 0c-55.84,0 -112.14,4.4 -167.79,12.21 -61.65,8.65 -122.85,21.39 -182.09,36.9 -65.8,17.23 -129.83,38.11 -189.84,60.82 -65.5,24.79 -126.22,51.93 -179.17,78.96 -155.33,79.29 -290.08,174.3 -404.84,284.28 -116.27,111.43 -212.45,238.47 -289.18,380.32 -78.24,144.67 -136.37,304.68 -175.03,479.15 -39.3,177.32 -58.6,370.55 -58.6,578.77l-0.2 0z"/>
  </g>
 </g>
</svg>
