<?xml version="1.0" encoding="UTF-8"?>
<!DOCTYPE svg PUBLIC "-//W3C//DTD SVG 1.1//EN" "http://www.w3.org/Graphics/SVG/1.1/DTD/svg11.dtd">
<!-- Creator: CorelDRAW 2020 (64 Bit) -->
<svg xmlns="http://www.w3.org/2000/svg" xml:space="preserve" width="114.171mm" height="114.171mm" version="1.1" style="shape-rendering:geometricPrecision; text-rendering:geometricPrecision; image-rendering:optimizeQuality; fill-rule:evenodd; clip-rule:evenodd"
viewBox="0 0 11417.14 11417.14"
 xmlns:xlink="http://www.w3.org/1999/xlink"
 xmlns:xodm="http://www.corel.com/coreldraw/odm/2003">
 <defs>
  <style type="text/css">
   <![CDATA[
    .fil0 {fill:url(#id0);fill-rule:nonzero}
   ]]>
  </style>
  <linearGradient id="id0" gradientUnits="userSpaceOnUse" x1="-0" y1="5708.57" x2="11417.14" y2="5708.57">
   <stop offset="0" style="stop-opacity:1; stop-color:#90E1FC"/>
   <stop offset="0.490196" style="stop-opacity:1; stop-color:#FB81F8"/>
   <stop offset="1" style="stop-opacity:1; stop-color:#FFFE7F"/>
  </linearGradient>
 </defs>
 <g id="Camada_x0020_1">
  <metadata id="CorelCorpID_0Corel-Layer"/>
  <path class="fil0" d="M5406.41 0l606.07 0 4.52 0.36c182.84,9.99 365.13,28.61 546.29,56.05 179.89,27.25 360.49,63.36 541.27,108.55 94.25,23.55 182.31,48.31 270.17,75.29 85.74,26.33 170.1,54.56 259.33,85.77 228.1,79.74 474.85,188.79 710.54,311.29 238.15,123.78 466.87,262.11 655.69,398.71 566.61,409.91 1052.51,901.64 1437.6,1463.75 374.88,547.21 653.97,1160.98 818.69,1830.72 46.15,187.7 82.48,377.23 109.13,567.75 26.76,191.46 43.75,384.61 51.07,578.58l0.35 3.13 0 429.43 -0.35 3.14c-10.95,293.24 -43.9,585.06 -98.29,872.52 -54.43,287.67 -130.4,571.65 -227.38,849.01 -30.3,86.72 -61.6,171.38 -94.11,251.32 -33.39,82.11 -69.43,163 -108.95,241.4 -332.67,659.97 -695.79,1186.43 -1141.8,1631.39 -445.65,444.59 -972.95,806.37 -1634.34,1137.29 -332.01,166.13 -699.51,292.53 -1085.39,379.22 -396.67,89.11 -813.57,136.47 -1231.97,142.1l-1.04 0.35 -171.2 0 -1.04 -0.35c-420.79,-5.97 -840.2,-54.17 -1239.18,-144.57 -388.61,-88.05 -758.34,-216.12 -1091.72,-384.16 -659.97,-332.67 -1186.44,-695.79 -1631.39,-1141.8 -444.6,-445.65 -806.38,-972.95 -1137.3,-1634.34 -198.71,-397.15 -329.23,-811.98 -409.95,-1240.36 -80.57,-427.62 -111.72,-867.73 -111.72,-1316.65 0,-532.55 100.84,-1094.7 277.83,-1630.72 181.29,-549.01 442.89,-1071.49 758.19,-1507.33 522.25,-721.89 1181.32,-1301.35 1924.11,-1712.61 747.39,-413.83 1579.32,-657.19 2441.74,-703.87l4.53 -0.36zm606.07 178.19l0 0.11 -606.07 0 0 -0.1c-833.51,45.82 -1637.51,281.33 -2359.92,681.32 -719.98,398.64 -1359.24,960.89 -1866.29,1661.78 -304.45,420.83 -557.41,926.43 -733.13,1458.58 -171.22,518.53 -268.76,1061.53 -268.76,1575.01 0,440.1 30.17,869.65 108.23,1283.92 77.91,413.48 203.36,812.83 393.93,1193.7 322.11,643.77 673.51,1156.29 1104.56,1588.36 430.68,431.7 942.38,784.24 1585.42,1108.38 320.43,161.53 676.27,284.72 1050.64,369.54 387.16,87.72 793.71,134.52 1201.22,140.37l0 -0.33 171.2 0 0 0.33c405.26,-5.51 809.3,-51.48 1194.01,-137.9 372.72,-83.73 726.59,-205.27 1045,-364.6 643.77,-322.11 1156.29,-673.51 1588.36,-1104.56 431.7,-430.68 784.24,-942.38 1108.38,-1585.42 36.26,-71.94 70.35,-148.64 102.69,-228.17 33.23,-81.72 63.34,-162.88 91.33,-242.96 93.93,-268.65 167.57,-544.01 220.41,-823.24 52.71,-278.6 84.68,-560.5 95.38,-842.93l-0.23 0 0 -429.43 0.23 0c-7.11,-185.57 -23.58,-371.6 -49.55,-557.33 -25.78,-184.37 -60.96,-367.86 -105.65,-549.64 -159.49,-648.48 -429.8,-1242.88 -792.93,-1772.93 -373.14,-544.68 -844.68,-1021.67 -1395.11,-1419.86 -181.16,-131.07 -402.16,-264.6 -633.41,-384.79 -230.21,-119.65 -468.84,-225.34 -686.86,-301.55 -86.85,-30.38 -169.11,-57.9 -253.07,-83.68 -81.85,-25.13 -166.68,-48.9 -261.1,-72.49 -174.4,-43.6 -349.44,-78.55 -524.56,-105.08 -176.54,-26.75 -351.48,-44.8 -524.35,-54.41zm-1512.32 4323.07c0,-107 -30.93,-182.88 -87.73,-246.37 -62.92,-70.34 -160.98,-132 -284.78,-202.76 -31.2,-17.83 -82.09,-40.43 -136.02,-61.36 -54.78,-21.27 -113.14,-40.93 -157.93,-52.37 -37.48,-9.57 -121.55,-23.48 -201.58,-33.45 -64.83,-8.09 -124.52,-13.46 -149.25,-11.46 -139.73,11.36 -253.53,28.11 -355.6,56.6 -100.07,27.93 -191.33,67.98 -288.09,126.46 -243.52,147.16 -340.11,281.49 -351.1,388.88 -3.99,38.93 4.19,74.45 20.76,105.29 17.65,32.85 44.87,61.17 77.44,83.48 78.52,53.79 183.19,72.07 260.14,36.54 5.84,-2.7 26.49,-18.73 53.61,-39.79 162.86,-126.46 509.85,-395.89 962.35,-163.81 49.65,25.45 95.55,60.76 143.72,97.83 106.56,81.98 227.62,175.1 365.58,101.25 27.89,-14.92 64.9,-49.49 93.59,-92.45 20.38,-30.54 34.89,-63.53 34.89,-92.51zm44.59 -364.76c86.56,96.77 133.7,209.43 133.7,364.76 0,67.12 -27.24,134.04 -65.55,191.4 -44.6,66.82 -107.45,123.4 -157.65,150.26 -239.02,127.96 -408.56,-2.46 -557.78,-117.27 -41.91,-32.24 -81.83,-62.96 -115.88,-80.41 -351.51,-180.28 -637.83,42.03 -772.21,146.38 -35.8,27.8 -63.06,48.96 -88.43,60.68 -134.06,61.91 -308.64,35.38 -434.95,-51.16 -55.29,-37.88 -102.26,-87.37 -133.86,-146.16 -32.68,-60.83 -48.82,-130.87 -40.96,-207.66 16.17,-157.88 136.85,-342.45 436.07,-523.29 110.12,-66.55 215.5,-112.55 332.67,-145.26 115.14,-32.15 239.26,-50.69 389.02,-62.86 37.65,-3.06 110.11,2.84 184.77,12.14 86.76,10.81 180.09,26.46 223.87,37.64 49.11,12.54 115.04,34.85 178.12,59.33 63.14,24.52 123.09,51.19 160.39,72.51 137.54,78.61 248.23,149.04 328.66,238.97zm2372.69 276.99c0,58.99 2.89,112.58 19.67,156.04 15.45,40.01 45.13,77.05 100.17,111.32 123.71,77.02 232.38,2.63 358.63,-83.83 213.83,-146.42 465.71,-318.9 907.23,-95.35 71.16,36.02 118.2,75.97 162.84,113.88 31.65,26.89 61.88,52.57 95,70.23 79.5,42.39 186.76,25.72 266.92,-28.52 32.15,-21.74 59.12,-49.2 77.14,-80.83 17.18,-30.18 26.6,-64.85 24.84,-102.66 -5.01,-107.84 -96.32,-243.38 -337.82,-388.89 -115.9,-69.84 -207.53,-109 -302.57,-134.36l0.02 -0.08c-96.72,-25.78 -201.63,-38.48 -339.8,-54.67 -20.1,-2.35 -42.11,-3.49 -65.73,-3.49 -185.19,0 -424.66,73.81 -622.5,180.08 -186.29,100.08 -331.02,223.25 -343.43,329.16 -0.4,3.43 -0.61,7.43 -0.61,11.97zm-146.07 220.11c-27.5,-71.22 -32.22,-143.41 -32.22,-220.11 0,-10.1 0.67,-20.83 2.01,-32.16 19.85,-169.43 202.94,-340.43 436.06,-465.66 221.56,-119.02 493.17,-201.68 706.76,-201.68 29.05,0 57.77,1.6 85.93,4.89 145.25,17.02 255.7,30.42 365.19,59.63l0.36 0c111.29,29.7 217,74.59 348.52,153.85 301.11,181.44 415.96,371.65 423.49,533.74 3.39,73.1 -14.72,139.95 -47.83,198.08 -32.27,56.67 -78.39,104.35 -132.15,140.72 -130.24,88.12 -310.53,111.99 -450.08,37.58 -51.23,-27.32 -87.92,-58.49 -126.34,-91.12 -37.04,-31.46 -76.08,-64.62 -128.01,-90.9 -347.77,-176.09 -552.81,-35.69 -726.87,83.51 -177.69,121.68 -330.66,226.41 -552.92,88 -91.74,-57.12 -143.07,-123.71 -171.9,-198.37zm-3652.78 1907.76l5269.55 0 0 89.15c0,193.84 -63.26,426.37 -155.05,650.3 -107.97,263.43 -257.05,517.84 -388.1,681.72 -93.45,116.84 -193.18,224.58 -300.4,322.96 -108.06,99.15 -224.79,190.04 -351.49,272.51 -67.38,43.84 -133.28,84.18 -199.36,120.02 -67.22,36.44 -138.5,70.43 -217.13,101.8 -513.27,204.82 -1033.29,264.98 -1526.72,184 -491.97,-80.75 -956.74,-301.6 -1361.35,-659.06 -90.18,-79.69 -156.23,-156.64 -227.2,-239.35 -17.31,-20.17 -35.06,-40.85 -65.92,-75.86 -82.67,-93.79 -148,-202.93 -212.4,-310.5 -12.57,-21.02 -25.25,-42.19 -42.67,-70.68 -66.3,-108.4 -155.59,-307.12 -221.02,-511.94 -52.27,-163.58 -89.87,-332.47 -89.87,-465.92l0 -89.15 89.14 0zm5086.48 178.29l-4991.69 0c11.49,98.44 39.54,211.64 75.17,323.16 60.85,190.48 143.03,373.87 203.61,472.95 11.39,18.62 27.31,45.2 43.37,72.06 59.64,99.61 120.14,200.7 193.6,284.03 15.48,17.56 41.66,48.06 67.3,77.95 67.24,78.36 129.82,151.29 209.8,221.95 378.74,334.6 813.06,541.21 1272.2,616.57 462,75.83 950.01,19.07 1432.71,-173.55 67.65,-26.99 132.94,-58.38 197.62,-93.45 65.8,-35.69 127.19,-73.09 187.52,-112.35 117.56,-76.52 226.45,-161.39 327.82,-254.41 102.24,-93.81 195.91,-194.76 282.29,-302.76 121.31,-151.69 260.37,-389.78 362.33,-638.54 69.44,-169.43 120.95,-342.44 136.34,-493.61zm-2518.24 2785.08c388.53,0 741.57,-61.63 1071.17,-178.1 330.74,-116.87 638.87,-289 936.31,-509.53 158.38,-117.44 244.25,-211.22 339.2,-314.92 38.79,-42.37 78.99,-86.27 119.69,-127.94 56.67,-58 126.88,-157.41 176.82,-228.13l5.88 -8.34c166.06,-234.85 317.84,-522.88 423.96,-825.65 94.42,-269.37 152.68,-549.76 152.55,-813.57 -0.03,-61.12 4.56,-106.08 8.52,-144.89l0 -0.35c6.99,-68.48 11.45,-112.28 -32.98,-193.6 -20.44,-37.37 -49.03,-68.61 -85.99,-89.64 -34.41,-19.59 -77.5,-30.9 -129.8,-30.9l-5926.75 0c-215.42,0 -246.82,171.64 -246.82,294.05 0,38.93 2.62,73.02 4.58,98.66 1.17,15.36 2.13,27.83 2.29,43.62 2.25,218.42 44.08,463.77 111.61,700.96 70.79,248.67 169.45,486.3 279.98,672.75 71.56,120.7 190.57,300.05 312.75,459.73 91.48,119.56 183.93,227.17 257.34,287.98 20.41,16.9 32.5,25.89 43.35,33.94 25.25,18.75 45.62,33.88 83.03,71.35 143.59,143.74 351.83,285.61 577.12,406.17 242.8,129.93 504.08,234.33 725.21,289.42 115.06,28.67 241.68,55.47 375.97,75.18 132.39,19.43 272.08,31.75 415,31.75zm1130.37 -10.27c-348.97,123.32 -721.57,188.57 -1130.37,188.57 -151.14,0 -299.59,-13.14 -440.78,-33.86 -139.31,-20.45 -271.77,-48.53 -392.67,-78.65 -234.51,-58.42 -510.59,-168.61 -766.3,-305.45 -240,-128.43 -463.33,-281.05 -619.61,-437.5 -28.13,-28.17 -43.63,-39.69 -62.82,-53.95 -15.12,-11.22 -31.96,-23.72 -51.02,-39.51 -84.27,-69.8 -186.15,-187.79 -285.19,-317.22 -126.78,-165.7 -250.3,-351.85 -324.59,-477.16 -118.3,-199.54 -223.33,-451.9 -298.09,-714.52 -71.26,-250.32 -115.45,-511.97 -117.88,-748.31 -0.01,-2.06 -1.04,-15.4 -2.29,-31.8 -2.27,-29.59 -5.29,-68.94 -5.29,-111.88 0,-196.61 54.09,-472.34 425.12,-472.34l5926.75 0c84.27,0 156.76,19.98 217.55,54.58 67.13,38.2 118.34,93.63 154.24,159.28 70.9,129.74 64.28,194.85 53.87,296.68 -3.65,35.57 -7.85,76.78 -7.83,127.13 0.14,285.21 -61.84,585.48 -162.3,872.08 -111.92,319.3 -271.65,622.59 -446.24,869.51l-5.89 8.34c-53.2,75.34 -127.99,181.24 -194.91,249.72 -46.37,47.5 -81.93,86.32 -116.22,123.77 -101.51,110.88 -193.33,211.15 -364.26,337.9 -311.72,231.1 -635.17,411.69 -982.97,534.59z"/>
 </g>
</svg>
