<?xml version="1.0" encoding="UTF-8"?>
<!DOCTYPE svg PUBLIC "-//W3C//DTD SVG 1.1//EN" "http://www.w3.org/Graphics/SVG/1.1/DTD/svg11.dtd">
<!-- Creator: CorelDRAW 2020 (64 Bit) -->
<svg xmlns="http://www.w3.org/2000/svg" xml:space="preserve" width="169.333mm" height="169.333mm" version="1.1" style="shape-rendering:geometricPrecision; text-rendering:geometricPrecision; image-rendering:optimizeQuality; fill-rule:evenodd; clip-rule:evenodd"
viewBox="0 0 16933.32 16933.32"
 xmlns:xlink="http://www.w3.org/1999/xlink"
 xmlns:xodm="http://www.corel.com/coreldraw/odm/2003">
 <defs>
  <style type="text/css">
   <![CDATA[
    .fil0 {fill:white}
    .fil3 {fill:black;fill-rule:nonzero}
    .fil4 {fill:url(#id0);fill-rule:nonzero}
    .fil2 {fill:url(#id1);fill-rule:nonzero}
    .fil1 {fill:url(#id2);fill-rule:nonzero}
   ]]>
  </style>
  <linearGradient id="id0" gradientUnits="userSpaceOnUse" x1="1928.36" y1="9099.31" x2="8480.38" y2="9099.31">
   <stop offset="0" style="stop-opacity:1; stop-color:#90E1FC"/>
   <stop offset="0.490196" style="stop-opacity:1; stop-color:#FB81F8"/>
   <stop offset="1" style="stop-opacity:1; stop-color:#FFFE7F"/>
  </linearGradient>
  <linearGradient id="id1" gradientUnits="userSpaceOnUse" xlink:href="#id0" x1="3180.34" y1="8449.06" x2="7228.4" y2="8449.06">
  </linearGradient>
  <linearGradient id="id2" gradientUnits="userSpaceOnUse" xlink:href="#id0" x1="9703.51" y1="9501.02" x2="15033.24" y2="9501.02">
  </linearGradient>
 </defs>
 <g id="Camada_x0020_1">
  <metadata id="CorelCorpID_0Corel-Layer"/>
  <path class="fil0" d="M12227.32 6877.77l282.93 0c165.76,9.06 332.92,34 499.72,75.7 88.09,22.02 161.4,45.29 243.61,74.05 209.04,73.07 454.97,201.42 627.05,325.91 514.51,372.22 883.92,890.38 1037.35,1514.19 42.6,173.25 66.96,349.79 73.64,526.68l0 200.46c-10.05,269.18 -60.61,536.51 -149.75,791.46 -27.22,77.87 -57.3,154.78 -92.68,224.97 -306.61,608.28 -668.15,969.24 -1277.42,1274.1 -308.25,154.25 -684.75,233.88 -1063.75,238.97l-79.91 0c-381.07,-5.41 -759.99,-86.21 -1069.91,-242.43 -608.28,-306.61 -969.24,-668.15 -1274.1,-1277.42 -181.73,-363.21 -238.97,-760.11 -238.97,-1175.13 0,-494.48 189.91,-1045.54 475.66,-1440.52 481.89,-666.09 1216.33,-1068.21 2006.53,-1110.99zm-381.44 2059.65c0,-122.46 -72.86,-176.01 -194.87,-245.75 -32.1,-18.34 -103.92,-46.15 -147.62,-57.32 -34.84,-8.9 -145.29,-24.7 -177.27,-22.1 -135.14,10.99 -222.1,32.93 -318.69,91.31 -366.09,221.24 -97.7,424.65 42.23,360.02 41.75,-19.28 210.62,-212.48 438.02,-95.85 75.03,38.47 157.12,156.31 276.11,92.61 32.83,-17.57 82.09,-72.46 82.09,-122.92zm1045.2 -40.98c0,63.36 7.09,117.42 75.62,160.09 183.81,114.46 265.59,-248.23 594.18,-81.86 53.38,27.03 76.9,62.72 119.55,85.46 143.71,76.63 413.63,-136.87 55.47,-352.68 -115.51,-69.61 -184.22,-78.46 -316.6,-93.97 -186.52,-21.86 -528.22,143.64 -528.22,282.96zm-1731.75 1034.95l2418.31 0c0,186.58 -136.19,460.79 -244.29,595.97 -83.96,104.97 -180.53,194.81 -294.56,269.04 -59.64,38.8 -118.82,72.55 -187.11,99.81 -463.89,185.11 -938.92,109.53 -1305.46,-214.29 -52.06,-46 -87.45,-91.8 -133.09,-143.57 -44.87,-50.9 -79.01,-113.5 -114.85,-172.09 -52.9,-86.5 -138.95,-302.98 -138.95,-434.87zm1198.9 1383.36c372.21,0 677.46,-118.46 961.84,-329.29 105.46,-78.2 144.28,-134.36 219.25,-211.13 29.97,-30.66 65.31,-81.17 89.52,-115.42 150.57,-212.96 276.74,-517.57 276.6,-789.12 -0.04,-85.66 22.24,-107.19 -16.46,-178.01 -25.18,-46.05 -70.41,-78.05 -137.14,-78.05l-2766.72 0c-192.22,0 -153.86,205.88 -153.46,245.63 2.24,217.47 84.14,486.07 188.49,662.07 60.1,101.38 190.48,289.61 275.39,359.94 25,20.71 31.83,22.11 56.07,46.39 144.99,145.15 421.84,284.55 627.46,335.77 110.16,27.45 241.88,51.22 379.16,51.22z"/>
  <path class="fil1" d="M12227.32 6836.15l282.93 0 2.11 0.17c85.35,4.66 170.44,13.35 255.02,26.16 83.97,12.72 168.28,29.58 252.67,50.68 44,10.99 85.11,22.55 126.12,35.14 40.03,12.3 79.4,25.47 121.06,40.04 106.48,37.23 221.67,88.13 331.69,145.32 111.18,57.78 217.95,122.36 306.09,186.12 264.51,191.36 491.33,420.91 671.1,683.31 175.01,255.45 305.29,541.97 382.18,854.62 21.55,87.62 38.51,176.09 50.95,265.03 12.49,89.38 20.42,179.55 23.83,270.09l0.17 1.47 0 200.46 -0.17 1.47c-5.11,136.89 -20.49,273.11 -45.88,407.31 -25.4,134.28 -60.87,266.86 -106.14,396.33 -14.15,40.49 -28.76,80 -43.93,117.32 -15.59,38.33 -32.42,76.09 -50.87,112.69 -155.29,308.09 -324.8,553.85 -533.01,761.56 -208.04,207.55 -454.19,376.43 -762.94,530.91 -154.99,77.56 -326.55,136.56 -506.68,177.03 -185.17,41.6 -379.79,63.71 -575.11,66.33l-0.49 0.17 -79.91 0 -0.49 -0.17c-196.43,-2.78 -392.22,-25.28 -578.47,-67.48 -181.41,-41.11 -354.01,-100.89 -509.64,-179.34 -308.09,-155.29 -553.85,-324.81 -761.56,-533.01 -207.55,-208.04 -376.43,-454.19 -530.91,-762.94 -92.77,-185.4 -153.7,-379.05 -191.38,-579.03 -37.61,-199.61 -52.15,-405.07 -52.15,-614.63 0,-248.61 47.07,-511.03 129.69,-761.25 84.63,-256.29 206.75,-500.2 353.94,-703.65 243.8,-337 551.47,-607.5 898.21,-799.48 348.9,-193.19 737.26,-306.79 1139.86,-328.58l2.11 -0.17zm282.93 83.18l0 0.05 -282.93 0 0 -0.04c-389.1,21.39 -764.42,131.33 -1101.66,318.05 -336.09,186.09 -634.51,448.56 -871.22,775.75 -142.12,196.45 -260.21,432.47 -342.24,680.89 -79.92,242.06 -125.46,495.55 -125.46,735.25 0,205.45 14.09,405.97 50.53,599.36 36.37,193.02 94.93,379.44 183.89,557.24 150.37,300.52 314.41,539.78 515.63,741.48 201.05,201.52 439.92,366.1 740.11,517.41 149.58,75.4 315.69,132.91 490.45,172.51 180.74,40.95 370.52,62.79 560.76,65.53l0 -0.16 79.91 0 0 0.16c189.19,-2.58 377.8,-24.04 557.39,-64.38 174,-39.09 339.19,-95.82 487.83,-170.2 300.52,-150.37 539.78,-314.41 741.48,-515.63 201.52,-201.05 366.1,-439.92 517.41,-740.1 16.93,-33.59 32.84,-69.39 47.94,-106.52 15.51,-38.15 29.57,-76.03 42.63,-113.42 43.85,-125.41 78.23,-253.95 102.89,-384.3 24.61,-130.06 39.53,-261.66 44.53,-393.5l-0.11 0 0 -200.46 0.11 0c-3.32,-86.63 -11.01,-173.48 -23.13,-260.18 -12.04,-86.07 -28.46,-171.72 -49.32,-256.58 -74.46,-302.72 -200.64,-580.2 -370.16,-827.64 -174.19,-254.26 -394.31,-476.93 -651.26,-662.82 -84.57,-61.18 -187.74,-123.51 -295.69,-179.62 -107.46,-55.86 -218.86,-105.2 -320.64,-140.77 -40.54,-14.18 -78.94,-27.03 -118.14,-39.06 -38.21,-11.74 -77.81,-22.83 -121.88,-33.85 -81.42,-20.35 -163.13,-36.66 -244.88,-49.05 -82.41,-12.48 -164.08,-20.91 -244.77,-25.4zm-705.99 2018.09c0,-49.95 -14.43,-85.37 -40.95,-115.01 -29.37,-32.84 -75.15,-61.62 -132.94,-94.65 -14.57,-8.33 -38.32,-18.87 -63.49,-28.65 -25.58,-9.93 -52.82,-19.1 -73.73,-24.44 -17.5,-4.47 -56.74,-10.97 -94.1,-15.62 -30.27,-3.78 -58.13,-6.28 -69.68,-5.35 -65.22,5.3 -118.35,13.12 -166,26.42 -46.71,13.04 -89.31,31.74 -134.48,59.04 -113.68,68.69 -158.77,131.4 -163.9,181.53 -1.86,18.18 1.95,34.76 9.69,49.15 8.24,15.34 20.95,28.56 36.15,38.97 36.66,25.12 85.52,33.65 121.44,17.06 2.72,-1.26 12.36,-8.74 25.03,-18.57 76.02,-59.04 238,-184.81 449.24,-76.47 23.18,11.88 44.6,28.36 67.09,45.67 49.74,38.27 106.26,81.74 170.66,47.26 13.02,-6.96 30.3,-23.1 43.69,-43.16 9.51,-14.25 16.28,-29.65 16.28,-43.18zm20.82 -170.28c40.41,45.18 62.41,97.77 62.41,170.28 0,31.33 -12.71,62.57 -30.59,89.35 -20.83,31.19 -50.16,57.6 -73.6,70.14 -111.58,59.73 -190.72,-1.15 -260.38,-54.74 -19.56,-15.05 -38.2,-29.39 -54.1,-37.54 -164.09,-84.16 -297.75,19.62 -360.48,68.34 -16.71,12.97 -29.44,22.85 -41.28,28.32 -62.58,28.9 -144.08,16.52 -203.04,-23.88 -25.81,-17.69 -47.74,-40.79 -62.49,-68.23 -15.26,-28.4 -22.79,-61.09 -19.12,-96.94 7.54,-73.7 63.88,-159.86 203.56,-244.28 51.41,-31.07 100.6,-52.54 155.3,-67.81 53.75,-15.01 111.69,-23.67 181.6,-29.35 17.58,-1.43 51.4,1.33 86.26,5.67 40.5,5.05 84.07,12.35 104.5,17.57 22.93,5.85 53.71,16.27 83.15,27.7 29.48,11.44 57.46,23.89 74.88,33.84 64.2,36.7 115.87,69.58 153.42,111.56zm1107.62 129.3c0,27.54 1.35,52.56 9.18,72.85 7.21,18.68 21.07,35.97 46.76,51.96 57.75,35.96 108.48,1.23 167.42,-39.13 99.82,-68.35 217.4,-148.87 423.51,-44.51 33.22,16.81 55.18,35.47 76.01,53.16 14.78,12.55 28.89,24.54 44.36,32.79 37.11,19.79 87.18,12 124.6,-13.32 15.01,-10.15 27.6,-22.97 36.01,-37.73 8.02,-14.09 12.41,-30.27 11.6,-47.93 -2.34,-50.34 -44.97,-113.61 -157.71,-181.53 -54.1,-32.61 -96.88,-50.89 -141.24,-62.73l0.01 -0.04c-45.16,-12.03 -94.13,-17.96 -158.63,-25.51 -9.38,-1.1 -19.66,-1.63 -30.68,-1.63 -86.45,0 -198.24,34.45 -290.6,84.06 -86.96,46.72 -154.52,104.22 -160.32,153.66 -0.18,1.6 -0.28,3.46 -0.28,5.58zm-68.19 102.76c-12.84,-33.25 -15.04,-66.95 -15.04,-102.76 0,-4.71 0.31,-9.72 0.94,-15.01 9.26,-79.09 94.73,-158.92 203.56,-217.38 103.43,-55.56 230.22,-94.15 329.93,-94.15 13.56,0 26.97,0.75 40.11,2.29 67.81,7.95 119.37,14.2 170.48,27.84l0.17 0c51.95,13.86 101.3,34.82 162.69,71.82 140.57,84.69 194.18,173.49 197.7,249.16 1.58,34.12 -6.88,65.33 -22.33,92.46 -15.07,26.46 -36.59,48.72 -61.69,65.69 -60.8,41.14 -144.96,52.28 -210.11,17.55 -23.91,-12.75 -41.04,-27.31 -58.97,-42.54 -17.3,-14.68 -35.52,-30.16 -59.76,-42.43 -162.35,-82.2 -258.07,-16.66 -339.32,38.98 -82.95,56.8 -154.36,105.69 -258.12,41.08 -42.82,-26.66 -66.78,-57.75 -80.24,-92.6zm-1705.18 890.58l2459.92 0 0 41.61c0,90.49 -29.53,199.04 -72.38,303.58 -50.4,122.97 -120,241.74 -181.18,318.23 -43.62,54.55 -90.17,104.84 -140.23,150.77 -50.44,46.28 -104.93,88.71 -164.08,127.21 -31.45,20.47 -62.22,39.3 -93.07,56.03 -31.37,17.01 -64.65,32.88 -101.35,47.52 -239.61,95.62 -482.37,123.7 -712.71,85.9 -229.66,-37.7 -446.62,-140.8 -635.5,-307.67 -42.1,-37.19 -72.93,-73.12 -106.06,-111.73 -8.08,-9.41 -16.37,-19.07 -30.77,-35.41 -38.6,-43.78 -69.1,-94.73 -99.15,-144.95 -5.87,-9.81 -11.79,-19.69 -19.93,-32.99 -30.95,-50.6 -72.63,-143.37 -103.17,-238.98 -24.4,-76.37 -41.96,-155.21 -41.96,-217.51l0 -41.61 41.62 0zm2374.46 83.23l-2330.21 0c5.36,45.95 18.45,98.79 35.09,150.86 28.4,88.91 66.77,174.52 95.05,220.78 5.31,8.69 12.75,21.1 20.24,33.63 27.84,46.5 56.09,93.7 90.38,132.59 7.23,8.2 19.45,22.44 31.41,36.39 31.4,36.59 60.61,70.63 97.94,103.61 176.81,156.2 379.56,252.65 593.89,287.83 215.67,35.4 443.48,8.9 668.82,-81.01 31.58,-12.61 62.06,-27.26 92.25,-43.63 30.72,-16.66 59.38,-34.12 87.54,-52.45 54.88,-35.72 105.71,-75.34 153.03,-118.76 47.73,-43.79 91.46,-90.92 131.78,-141.33 56.63,-70.82 121.55,-181.96 169.14,-298.09 32.42,-79.09 56.46,-159.85 63.65,-230.42zm-1175.56 1300.13c181.37,0 346.18,-28.78 500.04,-83.15 154.4,-54.55 298.24,-134.91 437.09,-237.85 73.93,-54.82 114.02,-98.61 158.34,-147.02 18.11,-19.77 36.88,-40.27 55.87,-59.72 26.46,-27.08 59.23,-73.48 82.55,-106.5l2.74 -3.89c77.52,-109.63 148.37,-244.09 197.92,-385.43 44.07,-125.75 71.27,-256.63 71.21,-379.79 -0.01,-28.53 2.13,-49.52 3.98,-67.64l0 -0.16c3.26,-31.97 5.34,-52.41 -15.4,-90.37 -9.54,-17.45 -22.89,-32.03 -40.14,-41.85 -16.06,-9.14 -36.18,-14.42 -60.59,-14.42l-2766.72 0c-100.56,0 -115.22,80.12 -115.22,137.26 0,18.18 1.22,34.09 2.14,46.06 0.54,7.17 0.99,12.99 1.07,20.36 1.05,101.96 20.58,216.5 52.1,327.22 33.04,116.09 79.1,227.02 130.7,314.05 33.4,56.35 88.96,140.07 146,214.62 42.7,55.81 85.86,106.05 120.13,134.43 9.52,7.89 15.17,12.09 20.23,15.85 11.79,8.75 21.3,15.81 38.76,33.3 67.03,67.1 164.24,133.33 269.41,189.61 113.35,60.65 235.32,109.39 338.55,135.11 53.71,13.38 112.82,25.89 175.51,35.09 61.8,9.07 127.01,14.83 193.73,14.83zm527.67 -4.8c-162.9,57.57 -336.84,88.03 -527.67,88.03 -70.56,0 -139.86,-6.14 -205.77,-15.81 -65.03,-9.54 -126.87,-22.65 -183.3,-36.72 -109.48,-27.26 -238.36,-78.7 -357.73,-142.58 -112.03,-59.95 -216.29,-131.2 -289.24,-204.24 -13.14,-13.15 -20.37,-18.52 -29.33,-25.18 -7.06,-5.24 -14.92,-11.08 -23.82,-18.45 -39.34,-32.58 -86.9,-87.66 -133.13,-148.08 -59.18,-77.35 -116.84,-164.25 -151.52,-222.75 -55.23,-93.15 -104.26,-210.95 -139.16,-333.55 -33.26,-116.86 -53.89,-239 -55.02,-349.32 -0.01,-0.97 -0.49,-7.2 -1.07,-14.85 -1.07,-13.81 -2.47,-32.18 -2.47,-52.23 0,-91.78 25.24,-220.49 198.45,-220.49l2766.72 0c39.33,0 73.17,9.32 101.55,25.47 31.34,17.84 55.25,43.71 72.01,74.36 33.09,60.57 30,90.96 25.14,138.5 -1.7,16.6 -3.66,35.84 -3.65,59.34 0.06,133.14 -28.87,273.31 -75.77,407.1 -52.24,149.06 -126.81,290.64 -208.31,405.91l-2.75 3.89c-24.84,35.17 -59.75,84.61 -90.99,116.58 -21.65,22.17 -38.24,40.29 -54.25,57.77 -47.39,51.77 -90.25,98.58 -170.05,157.74 -145.51,107.89 -296.5,192.19 -458.87,249.56z"/>
  <path class="fil2" d="M5097.23 6425.02l214.89 0 1.61 0.13c64.82,3.54 129.46,10.14 193.69,19.87 63.78,9.67 127.81,22.47 191.91,38.49 33.42,8.35 64.64,17.13 95.79,26.7 30.4,9.33 60.31,19.34 91.95,30.41 80.88,28.27 168.37,66.93 251.93,110.37 84.44,43.89 165.53,92.93 232.48,141.37 200.9,145.33 373.18,319.68 509.72,518.98 132.92,194.02 231.87,411.64 290.28,649.11 16.36,66.54 29.24,133.75 38.69,201.3 9.49,67.88 15.51,136.36 18.1,205.14l0.13 1.11 0 152.26 -0.13 1.11c-3.88,103.97 -15.56,207.44 -34.84,309.36 -19.3,102 -46.24,202.69 -80.62,301.03 -10.75,30.75 -21.85,60.76 -33.37,89.11 -11.84,29.11 -24.62,57.79 -38.63,85.58 -117.95,234 -246.7,420.67 -404.84,578.43 -158.01,157.64 -344.97,285.91 -579.47,403.24 -117.72,58.9 -248.02,103.72 -384.84,134.46 -140.64,31.59 -288.46,48.38 -436.81,50.38l-0.37 0.12 -60.69 0 -0.37 -0.12c-149.2,-2.12 -297.91,-19.21 -439.37,-51.26 -137.78,-31.22 -268.88,-76.63 -387.08,-136.21 -234,-117.95 -420.66,-246.7 -578.43,-404.84 -157.63,-158 -285.91,-344.96 -403.24,-579.47 -70.45,-140.81 -116.73,-287.89 -145.35,-439.78 -28.57,-151.62 -39.61,-307.66 -39.61,-466.83 0,-188.82 35.75,-388.14 98.51,-578.19 64.27,-194.66 157.03,-379.91 268.82,-534.44 185.17,-255.95 418.85,-461.41 682.21,-607.23 265,-146.72 559.97,-233.01 865.75,-249.56l1.6 -0.13zm214.89 63.18l0 0.04 -214.89 0 0 -0.03c-295.52,16.24 -580.59,99.74 -836.73,241.57 -255.28,141.34 -481.93,340.69 -661.71,589.2 -107.95,149.21 -197.64,328.47 -259.94,517.15 -60.71,183.85 -95.29,376.38 -95.29,558.44 0,156.04 10.7,308.34 38.37,455.22 27.62,146.61 72.11,288.2 139.67,423.24 114.21,228.26 238.8,409.98 391.64,563.18 152.7,153.06 334.13,278.06 562.12,392.98 113.62,57.27 239.78,100.95 372.52,131.03 137.27,31.1 281.42,47.69 425.91,49.77l0 -0.12 60.69 0 0 0.12c143.69,-1.96 286.95,-18.26 423.35,-48.9 132.16,-29.69 257.63,-72.78 370.52,-129.27 228.26,-114.21 409.98,-238.8 563.17,-391.63 153.06,-152.71 278.06,-334.13 392.99,-562.13 12.86,-25.51 24.94,-52.7 36.41,-80.9 11.78,-28.98 22.46,-57.75 32.38,-86.14 33.3,-95.26 59.41,-192.89 78.15,-291.89 18.69,-98.78 30.02,-198.74 33.82,-298.87l-0.09 0 0 -152.26 0.09 0c-2.52,-65.8 -8.36,-131.76 -17.57,-197.61 -9.14,-65.37 -21.62,-130.43 -37.46,-194.88 -56.55,-229.93 -152.39,-440.68 -281.14,-628.61 -132.3,-193.12 -299.49,-362.25 -494.65,-503.43 -64.24,-46.47 -142.59,-93.81 -224.58,-136.43 -81.63,-42.42 -166.24,-79.9 -243.54,-106.92 -30.79,-10.77 -59.96,-20.52 -89.73,-29.67 -29.02,-8.91 -59.1,-17.33 -92.58,-25.7 -61.83,-15.46 -123.89,-27.85 -185.98,-37.26 -62.6,-9.48 -124.62,-15.88 -185.92,-19.29zm-536.21 1532.79c0,-37.94 -10.96,-64.84 -31.1,-87.36 -22.31,-24.93 -57.08,-46.79 -100.97,-71.88 -11.07,-6.33 -29.11,-14.34 -48.23,-21.76 -19.42,-7.54 -40.11,-14.51 -56,-18.57 -13.29,-3.39 -43.09,-8.32 -71.47,-11.86 -22.98,-2.87 -44.15,-4.77 -52.92,-4.06 -49.54,4.02 -89.89,9.96 -126.08,20.07 -35.48,9.9 -67.84,24.1 -102.14,44.83 -86.35,52.18 -120.59,99.81 -124.49,137.88 -1.41,13.81 1.49,26.4 7.36,37.34 6.26,11.64 15.91,21.68 27.46,29.6 27.84,19.07 64.95,25.55 92.23,12.95 2.07,-0.96 9.4,-6.64 19.01,-14.11 57.75,-44.83 180.77,-140.36 341.21,-58.08 17.61,9.03 33.88,21.55 50.96,34.69 37.78,29.07 80.71,62.08 129.62,35.9 9.89,-5.29 23.01,-17.55 33.18,-32.78 7.23,-10.83 12.37,-22.53 12.37,-32.8zm15.82 -129.33c30.69,34.31 47.4,74.25 47.4,129.33 0,23.8 -9.66,47.52 -23.24,67.86 -15.82,23.69 -38.1,43.75 -55.9,53.28 -84.75,45.37 -144.86,-0.87 -197.77,-41.58 -14.85,-11.43 -29.01,-22.32 -41.08,-28.51 -124.63,-63.92 -226.15,14.9 -273.8,51.9 -12.69,9.86 -22.35,17.36 -31.35,21.51 -47.53,21.95 -109.43,12.55 -154.22,-18.13 -19.6,-13.44 -36.26,-30.98 -47.46,-51.83 -11.58,-21.56 -17.31,-46.4 -14.52,-73.63 5.73,-55.97 48.52,-121.42 154.61,-185.53 39.05,-23.6 76.41,-39.91 117.95,-51.51 40.83,-11.39 84.84,-17.97 137.93,-22.29 13.35,-1.08 39.04,1.01 65.52,4.31 30.76,3.83 63.85,9.38 79.37,13.34 17.41,4.45 40.79,12.36 63.16,21.04 22.38,8.7 43.64,18.15 56.86,25.71 48.77,27.87 88.02,52.84 116.54,84.73zm841.26 98.21c0,20.91 1.02,39.92 6.97,55.33 5.48,14.18 16,27.31 35.52,39.46 43.86,27.31 82.39,0.94 127.15,-29.72 75.82,-51.91 165.13,-113.07 321.67,-33.8 25.23,12.76 41.91,26.93 57.74,40.37 11.22,9.54 21.94,18.64 33.68,24.9 28.19,15.03 66.22,9.12 94.64,-10.11 11.4,-7.71 20.96,-17.44 27.35,-28.66 6.09,-10.7 9.43,-22.99 8.81,-36.4 -1.78,-38.23 -34.15,-86.29 -119.78,-137.88 -41.09,-24.77 -73.58,-38.65 -107.28,-47.64l0.01 -0.03c-34.3,-9.14 -71.49,-13.64 -120.48,-19.38 -7.13,-0.84 -14.93,-1.24 -23.3,-1.24 -65.67,0 -150.57,26.17 -220.72,63.85 -66.05,35.48 -117.37,79.15 -121.77,116.71 -0.14,1.21 -0.21,2.63 -0.21,4.24zm-51.79 78.04c-9.76,-25.25 -11.43,-50.85 -11.43,-78.04 0,-3.58 0.24,-7.39 0.71,-11.4 7.04,-60.07 71.96,-120.71 154.61,-165.11 78.56,-42.2 174.86,-71.51 250.6,-71.51 10.3,0 20.48,0.57 30.46,1.74 51.5,6.03 90.66,10.79 129.48,21.14l0.13 0c39.46,10.53 76.94,26.45 123.57,54.55 106.77,64.33 147.48,131.77 150.15,189.24 1.21,25.92 -5.22,49.63 -16.95,70.23 -11.45,20.1 -27.8,37 -46.86,49.9 -46.18,31.24 -110.1,39.7 -159.58,13.32 -18.16,-9.68 -31.17,-20.73 -44.79,-32.3 -13.14,-11.16 -26.98,-22.92 -45.39,-32.24 -123.31,-62.43 -196.01,-12.65 -257.72,29.61 -63,43.15 -117.24,80.28 -196.05,31.21 -32.52,-20.26 -50.72,-43.87 -60.94,-70.34zm-1295.13 676.42l1868.37 0 0 31.61c0,68.72 -22.43,151.17 -54.98,230.57 -38.28,93.4 -91.14,183.6 -137.6,241.71 -33.14,41.43 -68.49,79.63 -106.51,114.51 -38.32,35.15 -79.7,67.38 -124.62,96.62 -23.9,15.54 -47.26,29.85 -70.69,42.55 -23.83,12.93 -49.11,24.98 -76.98,36.1 -181.99,72.62 -366.37,93.95 -541.32,65.24 -174.43,-28.63 -339.22,-106.94 -482.68,-233.68 -31.98,-28.25 -55.4,-55.54 -80.56,-84.86 -6.14,-7.16 -12.43,-14.49 -23.37,-26.9 -29.31,-33.26 -52.48,-71.95 -75.31,-110.09 -4.46,-7.46 -8.95,-14.96 -15.13,-25.06 -23.51,-38.43 -55.16,-108.89 -78.36,-181.51 -18.54,-58.01 -31.87,-117.89 -31.87,-165.2l0 -31.61 31.61 0zm1803.46 63.21l-1769.85 0c4.07,34.91 14.02,75.04 26.65,114.58 21.57,67.54 50.71,132.56 72.19,167.69 4.04,6.6 9.68,16.03 15.38,25.55 21.14,35.32 42.6,71.16 68.64,100.71 5.49,6.22 14.77,17.04 23.86,27.64 23.85,27.78 46.03,53.64 74.39,78.69 134.29,118.64 288.28,191.89 451.07,218.61 163.81,26.89 336.84,6.76 507.99,-61.53 23.98,-9.57 47.13,-20.7 70.06,-33.14 23.33,-12.65 45.1,-25.91 66.49,-39.83 41.68,-27.13 80.29,-57.22 116.23,-90.2 36.25,-33.27 69.47,-69.06 100.09,-107.35 43.01,-53.79 92.32,-138.2 128.47,-226.4 24.62,-60.07 42.88,-121.42 48.34,-175.02zm-892.87 987.48c137.76,0 262.93,-21.85 379.8,-63.15 117.26,-41.43 226.51,-102.46 331.98,-180.65 56.15,-41.64 86.6,-74.89 120.26,-111.66 13.75,-15.02 28.01,-30.59 42.44,-45.37 20.09,-20.56 44.98,-55.81 62.69,-80.88l2.09 -2.96c58.87,-83.27 112.69,-185.39 150.32,-292.74 33.47,-95.51 54.13,-194.92 54.08,-288.46 -0.01,-21.67 1.62,-37.61 3.03,-51.37l0 -0.13c2.47,-24.28 4.06,-39.81 -11.7,-68.64 -7.24,-13.25 -17.38,-24.33 -30.49,-31.78 -12.2,-6.95 -27.47,-10.96 -46.02,-10.96l-2101.39 0c-76.38,0 -87.51,60.86 -87.51,104.26 0,13.8 0.93,25.89 1.62,34.98 0.42,5.45 0.76,9.87 0.82,15.47 0.79,77.44 15.63,164.43 39.57,248.53 25.1,88.17 60.08,172.42 99.27,238.53 25.37,42.8 67.57,106.39 110.89,163 32.43,42.4 65.21,80.55 91.24,102.11 7.24,5.99 11.52,9.18 15.37,12.03 8.95,6.65 16.18,12.02 29.44,25.3 50.91,50.97 124.74,101.27 204.62,144.01 86.09,46.07 178.73,83.09 257.14,102.62 40.79,10.16 85.69,19.67 133.3,26.66 46.94,6.88 96.47,11.25 147.14,11.25zm400.78 -3.64c-123.72,43.72 -255.83,66.86 -400.78,66.86 -53.59,0 -106.22,-4.66 -156.28,-12.01 -49.39,-7.24 -96.36,-17.2 -139.23,-27.88 -83.15,-20.71 -181.03,-59.78 -271.7,-108.3 -85.09,-45.54 -164.28,-99.65 -219.69,-155.12 -9.97,-9.99 -15.47,-14.07 -22.27,-19.13 -5.36,-3.98 -11.33,-8.41 -18.09,-14.01 -29.88,-24.75 -66,-66.58 -101.12,-112.47 -44.95,-58.75 -88.74,-124.76 -115.08,-169.18 -41.95,-70.75 -79.19,-160.23 -105.69,-253.35 -25.27,-88.75 -40.94,-181.52 -41.8,-265.32 0,-0.73 -0.37,-5.46 -0.81,-11.27 -0.81,-10.49 -1.88,-24.45 -1.88,-39.67 0,-69.71 19.18,-167.47 150.73,-167.47l2101.39 0c29.88,0 55.58,7.08 77.13,19.35 23.81,13.54 41.97,33.2 54.69,56.47 25.14,46.01 22.79,69.09 19.11,105.2 -1.3,12.61 -2.79,27.22 -2.78,45.07 0.05,101.12 -21.93,207.59 -57.55,309.2 -39.68,113.22 -96.32,220.75 -158.22,308.3l-2.08 2.95c-18.87,26.72 -45.39,64.27 -69.11,88.55 -16.45,16.84 -29.05,30.6 -41.21,43.88 -35.99,39.31 -68.55,74.87 -129.15,119.81 -110.52,81.94 -225.21,145.97 -348.53,189.54z"/>
  <path class="fil3" d="M1955.01 10110.82l-0.01 -3237.89c0,-224.94 41.91,-419.53 128.74,-580.07 84.7,-156.62 212.08,-280.76 384.89,-368.97 55.18,-28.16 126.69,-56.89 203.78,-77.08 63.37,-16.61 130.49,-27.43 195.38,-27.43l4673.16 0c62.3,0 128.16,10.46 190.52,26.38 122.79,31.36 249.12,87.88 349.1,166.54 42.13,33.15 80.06,70.27 125.56,117.4 83.4,86.38 145.34,188.9 186.41,311.59 41,122.49 61.2,265.03 61.2,431.64l-0.04 3246.34c-1.6,312.33 -91.94,573.57 -265.44,756.82 -173.55,183.28 -430.14,288.39 -764.17,288.4l-1615.72 -0.24c-156.86,-0.92 -169.84,6.3 -260.22,56.64 -30.99,17.26 -70.97,39.52 -128.3,68.03 -188.31,93.63 -390.39,202.72 -592.92,312.06 -206.22,111.32 -412.92,222.9 -606.31,318.82 -44.27,21.96 -147.73,77.5 -268.44,142.29 -240.79,129.27 -550.21,295.37 -598.25,306.57l-8.41 1.95 175.1 -851.79c48.73,-243.69 61.26,-324.36 -58.39,-348.29 -61.41,-12.28 -156.87,-10.66 -298.24,-8.27 -59.2,1.01 -126.45,2.15 -202.7,2.46l-5.83 0.01c-320.27,0.03 -569.76,-108.54 -739.56,-293.87 -169.69,-185.21 -259.61,-446.98 -260.87,-753.51l-0.02 -6.53zm11.07 -3237.89l-0.01 3244.38c1.24,303.76 90.16,562.95 257.97,746.1 167.7,183.03 414.42,290.26 731.42,290.26l5.79 0.01c76.08,-0.31 143.34,-1.45 202.56,-2.46 142.16,-2.41 238.17,-4.04 300.58,8.44 130.22,26.05 117.46,109.47 67.08,361.32l-171.51 834.25c67.72,-24.13 358.35,-180.15 586.98,-302.89 120.72,-64.8 224.2,-120.35 268.79,-142.46 193.07,-95.76 399.76,-207.34 605.95,-318.65 202.54,-109.34 404.65,-218.44 593.28,-312.23 57.35,-28.52 97.05,-50.62 127.82,-67.77 92.59,-51.56 105.88,-58.96 265.61,-58.03l1615.7 0.25c330.78,0 584.66,-103.87 756.15,-284.99 171.53,-181.16 260.83,-439.78 262.42,-749.21l0 -3246.32c0,-165.49 -20,-306.87 -60.6,-428.14 -40.53,-121.08 -101.63,-222.23 -183.9,-307.43 -45.13,-46.74 -82.73,-83.55 -124.43,-116.36 -41.66,-32.77 -87.45,-61.62 -149.01,-92.48 -52.04,-26.09 -121.48,-52.99 -195.98,-72.02 -61.54,-15.71 -126.48,-26.03 -187.79,-26.03l-4673.16 0c-63.97,0 -130.14,10.67 -192.61,27.04 -76.15,19.94 -146.88,48.37 -201.52,76.25 -170.74,87.16 -296.56,209.74 -380.18,364.34 -85.92,158.88 -127.4,351.71 -127.4,574.83z"/>
  <path class="fil4" d="M1928.48 10110.82l-0.01 -3237.89 -0.11 0c0,-114.78 10.86,-222.18 32.95,-321.72 21.89,-98.65 54.77,-189.12 99.02,-270.94 43.95,-81.25 99.06,-154.05 165.68,-217.92 65.73,-63.02 142.48,-117.23 230.55,-162.19 29.58,-15.09 63.99,-30.44 101.7,-44.69 33.56,-12.7 69.77,-24.47 107.49,-34.36 34.05,-8.92 69.1,-16.22 104.22,-21.15 32.89,-4.62 65.75,-7.22 97.81,-7.22l4673.17 0c30.79,0 62.69,2.52 94.84,6.97 34.72,4.8 69.12,11.8 102.23,20.25 65,16.6 130.98,40.08 193.72,70.01 59,28.15 115.26,62.07 165.27,101.42 21.55,16.95 42.15,35.05 63.28,55.02 20.72,19.58 41.9,40.96 64.98,64.88 43.05,44.59 80.61,93.41 112.72,146.96 32.02,53.39 58.57,111.43 79.72,174.61 21.04,62.86 36.73,130.71 47.13,204.06 10.38,73.25 15.54,151.76 15.54,236.01l-0.11 0 -0.04 3246.44c-0.82,159.66 -24.43,306.35 -70.11,436.59 -45.72,130.35 -113.5,244.32 -202.62,338.44 -90.96,96.07 -203.99,171.28 -338.29,221.97 -129.15,48.74 -277.77,74.76 -445.12,74.76l0 -0.11 -1615.82 -0.24c-76.08,-0.44 -117.01,1.02 -148.9,8.47 -30.69,7.17 -55.3,20.87 -98.32,44.84l-0.41 0.26c-31.35,17.43 -71.75,39.92 -129.03,68.39 -187.53,93.24 -389.6,202.33 -592.1,311.64 -102.91,55.55 -205.94,111.18 -308.17,165.3 -101.63,53.8 -201.82,105.76 -298.96,153.94 -43.3,21.48 -145.89,76.54 -265.76,140.89l-0.11 0 -1.76 0.94 0.02 0.05c-121.69,65.32 -260.71,139.96 -371.73,197.77 -115.14,59.95 -206.54,105.11 -233.08,111.29 -7.38,0 -39.61,9.18 -48.79,11.31l183.42 -892.24 -0.08 -0.02c23.89,-119.5 38.94,-198.89 33.63,-248.53 -4.24,-39.68 -24.87,-59.19 -71.12,-68.45 -58.99,-11.79 -153.07,-10.2 -292.32,-7.84l-0.3 0c-29.41,0.5 -60.83,1.04 -95.06,1.49 -33.68,0.45 -69.6,0.82 -107.95,0.98l-5.93 0c-160.5,0.01 -303.82,-26.75 -428.84,-76.43 -130.53,-51.87 -241.04,-128.69 -330.27,-226.08 -87.18,-95.15 -153.87,-209.8 -198.89,-339.87 -44.95,-129.81 -68.32,-274.99 -68.96,-431.43l-0.02 -6.63zm64.13 -3237.89l-0.01 3244.27c0.61,149.22 22.73,287.31 65.29,410.38 42.17,121.97 104.43,229.23 185.71,317.93 82.75,90.32 185.46,161.61 307.01,209.85 117.37,46.57 252.65,71.68 404.85,71.68l0 0.1 5.71 0.01c75.51,-0.3 142.71,-1.45 201.87,-2.45l0.35 -0.01c71.3,-1.2 131.05,-2.22 181.03,-1.36 51.45,0.88 92.62,3.71 125.17,10.22 78.51,15.7 114.03,49.59 122.49,118.87 7.29,59.62 -8.8,145.3 -34.49,273.77l-0.1 0.1 -161.25 784.33c44.06,-20.72 109.51,-54.11 184.59,-93.37 105.21,-55.01 237.24,-125.89 353.52,-188.32l0.11 0 0.85 -0.46 -0.02 -0.04c120.36,-64.6 223.45,-119.95 268.69,-142.37 192.21,-95.35 398.76,-206.84 604.81,-318.07l0.3 -0.17c101.06,-54.55 202.02,-109.05 302.07,-162.04 99.41,-52.67 197.26,-103.47 292.05,-150.6 28.08,-13.97 52.13,-26.52 73.03,-37.73 22.67,-12.16 39.2,-21.37 53.64,-29.42l6.18 -3.43c92.36,-51.4 109.33,-58.88 272.43,-57.92l1615.6 0.24 0 -0.1c159.42,0 300.29,-24.48 422.01,-70.36 125.22,-47.19 230.43,-117.1 314.9,-206.31 82.87,-87.53 146,-193.88 188.71,-315.8 43.26,-123.52 65.62,-263 66.42,-415.1l-0.11 0 0 -3246.32c0,-81.8 -4.9,-157.31 -14.76,-227.02 -9.85,-69.6 -24.62,-133.68 -44.37,-192.69 -19.65,-58.69 -44.27,-112.53 -73.92,-161.97 -29.54,-49.28 -64.18,-94.29 -103.95,-135.48 -22.22,-23.01 -42.59,-43.59 -62.56,-62.46 -19.56,-18.49 -38.81,-35.37 -59.17,-51.39 -20.12,-15.83 -41.21,-30.7 -64.65,-45.3 -24.07,-15 -50.21,-29.56 -79.77,-44.38 -26,-13.03 -56.99,-26.44 -91.36,-39.07 -30.96,-11.37 -64.5,-21.97 -99.32,-30.87 -31.43,-8.02 -63.47,-14.58 -95.03,-18.95 -28.82,-3.99 -57.79,-6.25 -86.21,-6.25l-4673.17 0c-29.68,0 -59.59,2.34 -89.17,6.49 -32.76,4.6 -65.29,11.37 -96.77,19.61 -34.97,9.16 -69,20.26 -100.9,32.33 -34.81,13.17 -67.07,27.59 -95.22,41.96 -82.55,42.14 -154.16,92.63 -215.15,151.08 -61.79,59.22 -112.91,126.74 -153.69,202.12 -41.58,76.89 -72.47,161.93 -93.02,254.65 -20.88,94.24 -31.14,196.93 -31.14,307.59l-0.11 0z"/>
 </g>
</svg>
